<?xml version="1.0" encoding="utf-8" ?>
<svg xmlns="http://www.w3.org/2000/svg" xmlns:xlink="http://www.w3.org/1999/xlink" width="1024" height="1024">
	<path transform="scale(2 2)" d="M242.367 165.496C238.698 161.512 234.883 157.659 231.073 153.81C213.385 135.947 223.318 133.363 238.369 118.099C243.162 113.237 247.589 106.411 254.579 104.804C262.604 104.181 265.905 110.42 270.974 115.539C276.376 120.995 281.981 126.283 287.261 131.854C295.942 141.014 287.826 146.868 281.142 153.659C277.237 157.627 273.413 161.692 269.346 165.496C275.36 174.191 281.953 182.496 288.364 190.899L316.713 228.549C320.95 234.275 325.412 239.928 329.352 245.859L390.914 199.653C395.286 196.355 399.535 192.953 404.226 190.105C382.132 171.432 394.269 135.428 421.997 134.721C439.593 134.273 455.026 147.011 455.299 165.187C455.422 173.39 452.44 181.7 450.333 189.557C439.309 230.654 431.769 272.643 421.481 313.934C417.478 329.998 415.898 334.358 415.917 350.671L415.936 375.468C415.945 399.537 410.935 396.938 388.47 396.943L257.938 396.941L119.202 396.93C96.476 396.905 95.5276 397.859 95.5317 376.264L95.5301 349.384C95.5553 337.903 95.5953 334.902 92.9421 323.75L63.5309 198.825C61.1105 188.143 55.4663 171.922 56.8009 161.242C58.9551 144.003 75.6202 132.485 92.4995 134.783C118.545 138.33 129.548 174.37 107.982 190.105C111.881 192.502 115.484 195.529 119.132 198.291L159.393 228.375C167.248 234.189 175.184 239.886 182.922 245.859C185.479 241.418 189.1 237.399 192.17 233.289C208.987 210.773 225.198 187.732 242.367 165.496ZM255.831 128.197C252.427 132.535 248.219 136.17 244.498 140.221C248.395 144.018 252.273 147.773 255.831 151.901C259.318 147.786 263.239 143.973 267.11 140.221C263.423 136.131 259.138 132.615 255.831 128.197ZM86.3017 154.812C70.6143 155.793 73.0096 180.007 89.9337 178.248C105.939 173.953 100.828 151.299 86.3017 154.812ZM422.209 154.812C406.449 158.894 410.588 179.955 426.313 178.248C441.299 174.787 438.177 153.591 422.209 154.812ZM255.831 179.936C252.585 184.593 248.987 188.938 245.604 193.488L200.11 255.11C196.864 259.474 193.147 267.427 187.24 268.589C178.548 270.299 153.305 248.179 146.29 242.865L99.536 208.112C95.0156 204.78 88.8137 199.174 83.613 197.457C87.1975 214.649 91.4661 231.728 95.5328 248.811L110.012 310.278C111.193 315.294 112.649 320.426 113.453 325.507L254.579 325.507L398.079 325.507C400.91 316.489 402.538 306.929 404.559 297.694L412.452 263.16C417.329 241.245 423.319 219.562 427.373 197.457C419.689 201.944 412.922 207.959 405.77 213.231L369.55 239.969C363.168 244.742 357.022 249.763 350.544 254.424C343.662 259.376 333.182 270.701 323.823 268.121C318.928 266.772 315.97 260.7 313.177 256.911L263.797 190.611C261.688 187.826 258.072 182.15 255.831 179.936ZM119.239 345.195L114.821 345.195L114.838 366.594C114.841 370.048 115.063 373.655 114.821 377.093L391.489 377.093L396.491 377.093L396.491 345.195L119.239 345.195Z"/>
</svg>
